<svg xmlns="http://www.w3.org/2000/svg" width="960" height="588" viewBox="0 0 960 588" role="img" aria-label="Async buffer trace"><rect width="100%" height="100%" fill="#ffffff" /><text x="64" y="26" font-size="18" font-weight="700" fill="#111827">Async Buffer Trace</text><text x="64" y="44" font-size="12" fill="#4b5563">requests=8 steps=262 target_hz=50.00 overlap_ratio=0.20 latency_beta=0.50</text><line x1="64.00" y1="62" x2="100.00" y2="62" stroke="#2563eb" stroke-width="2.5" /><text x="108.00" y="66" font-size="11" fill="#374151">buffer_after_accept</text><line x1="246.20" y1="62" x2="282.20" y2="62" stroke="#6b7280" stroke-width="2" stroke-dasharray="6 4" /><text x="290.20" y="66" font-size="11" fill="#374151">trigger_threshold</text><circle cx="421.80" cy="62" r="4.5" fill="#10b981" stroke="#065f46" stroke-width="1.2" /><text x="434.80" y="66" font-size="11" fill="#374151">request_started</text><polygon points="554.80,57 559.80,62 554.80,67 549.80,62" fill="#f59e0b" stroke="#92400e" stroke-width="1.2" /><text x="569.80" y="66" font-size="11" fill="#374151">request_completed</text><line x1="696.40" y1="57" x2="706.40" y2="67" stroke="#dc2626" stroke-width="2" /><line x1="696.40" y1="67" x2="706.40" y2="57" stroke="#dc2626" stroke-width="2" /><text x="716.40" y="66" font-size="11" fill="#374151">underrun</text><line x1="790.80" y1="62" x2="826.80" y2="62" stroke="#f97316" stroke-width="3.5" stroke-linecap="round" /><text x="834.80" y="66" font-size="11" fill="#374151">ensemble</text><line x1="64" y1="94" x2="936" y2="94" stroke="#e5e7eb" stroke-width="1" /><line x1="64" y1="448.00" x2="936" y2="448.00" stroke="#e5e7eb" stroke-width="1" /><text x="54" y="452.00" font-size="11" text-anchor="end" fill="#6b7280">0</text><line x1="64" y1="441.08" x2="936" y2="441.08" stroke="#e5e7eb" stroke-width="1" /><text x="54" y="445.08" font-size="11" text-anchor="end" fill="#6b7280">1</text><line x1="64" y1="434.16" x2="936" y2="434.16" stroke="#e5e7eb" stroke-width="1" /><text x="54" y="438.16" font-size="11" text-anchor="end" fill="#6b7280">2</text><line x1="64" y1="427.24" x2="936" y2="427.24" stroke="#e5e7eb" stroke-width="1" /><text x="54" y="431.24" font-size="11" text-anchor="end" fill="#6b7280">3</text><line x1="64" y1="420.32" x2="936" y2="420.32" stroke="#e5e7eb" stroke-width="1" /><text x="54" y="424.32" font-size="11" text-anchor="end" fill="#6b7280">4</text><line x1="64" y1="413.40" x2="936" y2="413.40" stroke="#e5e7eb" stroke-width="1" /><text x="54" y="417.40" font-size="11" text-anchor="end" fill="#6b7280">5</text><line x1="64" y1="406.48" x2="936" y2="406.48" stroke="#e5e7eb" stroke-width="1" /><text x="54" y="410.48" font-size="11" text-anchor="end" fill="#6b7280">6</text><line x1="64" y1="399.56" x2="936" y2="399.56" stroke="#e5e7eb" stroke-width="1" /><text x="54" y="403.56" font-size="11" text-anchor="end" fill="#6b7280">7</text><line x1="64" y1="392.64" x2="936" y2="392.64" stroke="#e5e7eb" stroke-width="1" /><text x="54" y="396.64" font-size="11" text-anchor="end" fill="#6b7280">8</text><line x1="64" y1="385.72" x2="936" y2="385.72" stroke="#e5e7eb" stroke-width="1" /><text x="54" y="389.72" font-size="11" text-anchor="end" fill="#6b7280">9</text><line x1="64" y1="378.80" x2="936" y2="378.80" stroke="#e5e7eb" stroke-width="1" /><text x="54" y="382.80" font-size="11" text-anchor="end" fill="#6b7280">10</text><line x1="64" y1="371.88" x2="936" y2="371.88" stroke="#e5e7eb" stroke-width="1" /><text x="54" y="375.88" font-size="11" text-anchor="end" fill="#6b7280">11</text><line x1="64" y1="364.96" x2="936" y2="364.96" stroke="#e5e7eb" stroke-width="1" /><text x="54" y="368.96" font-size="11" text-anchor="end" fill="#6b7280">12</text><line x1="64" y1="358.04" x2="936" y2="358.04" stroke="#e5e7eb" stroke-width="1" /><text x="54" y="362.04" font-size="11" text-anchor="end" fill="#6b7280">13</text><line x1="64" y1="351.12" x2="936" y2="351.12" stroke="#e5e7eb" stroke-width="1" /><text x="54" y="355.12" font-size="11" text-anchor="end" fill="#6b7280">14</text><line x1="64" y1="344.20" x2="936" y2="344.20" stroke="#e5e7eb" stroke-width="1" /><text x="54" y="348.20" font-size="11" text-anchor="end" fill="#6b7280">15</text><line x1="64" y1="337.28" x2="936" y2="337.28" stroke="#e5e7eb" stroke-width="1" /><text x="54" y="341.28" font-size="11" text-anchor="end" fill="#6b7280">16</text><line x1="64" y1="330.36" x2="936" y2="330.36" stroke="#e5e7eb" stroke-width="1" /><text x="54" y="334.36" font-size="11" text-anchor="end" fill="#6b7280">17</text><line x1="64" y1="323.44" x2="936" y2="323.44" stroke="#e5e7eb" stroke-width="1" /><text x="54" y="327.44" font-size="11" text-anchor="end" fill="#6b7280">18</text><line x1="64" y1="316.52" x2="936" y2="316.52" stroke="#e5e7eb" stroke-width="1" /><text x="54" y="320.52" font-size="11" text-anchor="end" fill="#6b7280">19</text><line x1="64" y1="309.60" x2="936" y2="309.60" stroke="#e5e7eb" stroke-width="1" /><text x="54" y="313.60" font-size="11" text-anchor="end" fill="#6b7280">20</text><line x1="64" y1="302.68" x2="936" y2="302.68" stroke="#e5e7eb" stroke-width="1" /><text x="54" y="306.68" font-size="11" text-anchor="end" fill="#6b7280">21</text><line x1="64" y1="295.76" x2="936" y2="295.76" stroke="#e5e7eb" stroke-width="1" /><text x="54" y="299.76" font-size="11" text-anchor="end" fill="#6b7280">22</text><line x1="64" y1="288.84" x2="936" y2="288.84" stroke="#e5e7eb" stroke-width="1" /><text x="54" y="292.84" font-size="11" text-anchor="end" fill="#6b7280">23</text><line x1="64" y1="281.92" x2="936" y2="281.92" stroke="#e5e7eb" stroke-width="1" /><text x="54" y="285.92" font-size="11" text-anchor="end" fill="#6b7280">24</text><line x1="64" y1="275.00" x2="936" y2="275.00" stroke="#e5e7eb" stroke-width="1" /><text x="54" y="279.00" font-size="11" text-anchor="end" fill="#6b7280">25</text><line x1="64" y1="268.08" x2="936" y2="268.08" stroke="#e5e7eb" stroke-width="1" /><text x="54" y="272.08" font-size="11" text-anchor="end" fill="#6b7280">26</text><line x1="64" y1="261.16" x2="936" y2="261.16" stroke="#e5e7eb" stroke-width="1" /><text x="54" y="265.16" font-size="11" text-anchor="end" fill="#6b7280">27</text><line x1="64" y1="254.24" x2="936" y2="254.24" stroke="#e5e7eb" stroke-width="1" /><text x="54" y="258.24" font-size="11" text-anchor="end" fill="#6b7280">28</text><line x1="64" y1="247.32" x2="936" y2="247.32" stroke="#e5e7eb" stroke-width="1" /><text x="54" y="251.32" font-size="11" text-anchor="end" fill="#6b7280">29</text><line x1="64" y1="240.40" x2="936" y2="240.40" stroke="#e5e7eb" stroke-width="1" /><text x="54" y="244.40" font-size="11" text-anchor="end" fill="#6b7280">30</text><line x1="64" y1="233.48" x2="936" y2="233.48" stroke="#e5e7eb" stroke-width="1" /><text x="54" y="237.48" font-size="11" text-anchor="end" fill="#6b7280">31</text><line x1="64" y1="226.56" x2="936" y2="226.56" stroke="#e5e7eb" stroke-width="1" /><text x="54" y="230.56" font-size="11" text-anchor="end" fill="#6b7280">32</text><line x1="64" y1="219.64" x2="936" y2="219.64" stroke="#e5e7eb" stroke-width="1" /><text x="54" y="223.64" font-size="11" text-anchor="end" fill="#6b7280">33</text><line x1="64" y1="212.72" x2="936" y2="212.72" stroke="#e5e7eb" stroke-width="1" /><text x="54" y="216.72" font-size="11" text-anchor="end" fill="#6b7280">34</text><line x1="64" y1="205.80" x2="936" y2="205.80" stroke="#e5e7eb" stroke-width="1" /><text x="54" y="209.80" font-size="11" text-anchor="end" fill="#6b7280">35</text><line x1="64" y1="198.88" x2="936" y2="198.88" stroke="#e5e7eb" stroke-width="1" /><text x="54" y="202.88" font-size="11" text-anchor="end" fill="#6b7280">36</text><line x1="64" y1="191.96" x2="936" y2="191.96" stroke="#e5e7eb" stroke-width="1" /><text x="54" y="195.96" font-size="11" text-anchor="end" fill="#6b7280">37</text><line x1="64" y1="185.04" x2="936" y2="185.04" stroke="#e5e7eb" stroke-width="1" /><text x="54" y="189.04" font-size="11" text-anchor="end" fill="#6b7280">38</text><line x1="64" y1="178.12" x2="936" y2="178.12" stroke="#e5e7eb" stroke-width="1" /><text x="54" y="182.12" font-size="11" text-anchor="end" fill="#6b7280">39</text><line x1="64" y1="171.20" x2="936" y2="171.20" stroke="#e5e7eb" stroke-width="1" /><text x="54" y="175.20" font-size="11" text-anchor="end" fill="#6b7280">40</text><line x1="64" y1="164.28" x2="936" y2="164.28" stroke="#e5e7eb" stroke-width="1" /><text x="54" y="168.28" font-size="11" text-anchor="end" fill="#6b7280">41</text><line x1="64" y1="157.36" x2="936" y2="157.36" stroke="#e5e7eb" stroke-width="1" /><text x="54" y="161.36" font-size="11" text-anchor="end" fill="#6b7280">42</text><line x1="64" y1="150.44" x2="936" y2="150.44" stroke="#e5e7eb" stroke-width="1" /><text x="54" y="154.44" font-size="11" text-anchor="end" fill="#6b7280">43</text><line x1="64" y1="143.52" x2="936" y2="143.52" stroke="#e5e7eb" stroke-width="1" /><text x="54" y="147.52" font-size="11" text-anchor="end" fill="#6b7280">44</text><line x1="64" y1="136.60" x2="936" y2="136.60" stroke="#e5e7eb" stroke-width="1" /><text x="54" y="140.60" font-size="11" text-anchor="end" fill="#6b7280">45</text><line x1="64" y1="129.68" x2="936" y2="129.68" stroke="#e5e7eb" stroke-width="1" /><text x="54" y="133.68" font-size="11" text-anchor="end" fill="#6b7280">46</text><line x1="64" y1="122.76" x2="936" y2="122.76" stroke="#e5e7eb" stroke-width="1" /><text x="54" y="126.76" font-size="11" text-anchor="end" fill="#6b7280">47</text><line x1="64" y1="115.84" x2="936" y2="115.84" stroke="#e5e7eb" stroke-width="1" /><text x="54" y="119.84" font-size="11" text-anchor="end" fill="#6b7280">48</text><line x1="64" y1="108.92" x2="936" y2="108.92" stroke="#e5e7eb" stroke-width="1" /><text x="54" y="112.92" font-size="11" text-anchor="end" fill="#6b7280">49</text><line x1="64" y1="102.00" x2="936" y2="102.00" stroke="#e5e7eb" stroke-width="1" /><text x="54" y="106.00" font-size="11" text-anchor="end" fill="#6b7280">50</text><line x1="64.00" y1="102" x2="64.00" y2="448" stroke="#f3f4f6" stroke-width="1" /><text x="64.00" y="468" font-size="11" text-anchor="middle" fill="#6b7280">0</text><line x1="173.83" y1="102" x2="173.83" y2="448" stroke="#f3f4f6" stroke-width="1" /><text x="173.83" y="468" font-size="11" text-anchor="middle" fill="#6b7280">33</text><line x1="283.66" y1="102" x2="283.66" y2="448" stroke="#f3f4f6" stroke-width="1" /><text x="283.66" y="468" font-size="11" text-anchor="middle" fill="#6b7280">66</text><line x1="390.17" y1="102" x2="390.17" y2="448" stroke="#f3f4f6" stroke-width="1" /><text x="390.17" y="468" font-size="11" text-anchor="middle" fill="#6b7280">98</text><line x1="500.00" y1="102" x2="500.00" y2="448" stroke="#f3f4f6" stroke-width="1" /><text x="500.00" y="468" font-size="11" text-anchor="middle" fill="#6b7280">131</text><line x1="609.83" y1="102" x2="609.83" y2="448" stroke="#f3f4f6" stroke-width="1" /><text x="609.83" y="468" font-size="11" text-anchor="middle" fill="#6b7280">164</text><line x1="716.34" y1="102" x2="716.34" y2="448" stroke="#f3f4f6" stroke-width="1" /><text x="716.34" y="468" font-size="11" text-anchor="middle" fill="#6b7280">196</text><line x1="826.17" y1="102" x2="826.17" y2="448" stroke="#f3f4f6" stroke-width="1" /><text x="826.17" y="468" font-size="11" text-anchor="middle" fill="#6b7280">229</text><line x1="936.00" y1="102" x2="936.00" y2="448" stroke="#f3f4f6" stroke-width="1" /><text x="936.00" y="468" font-size="11" text-anchor="middle" fill="#6b7280">262</text><polyline fill="none" stroke="#2563eb" stroke-width="2.5" points="64.00,102.00 64.00,102.00 67.33,102.00 67.33,108.92 70.66,108.92 70.66,115.84 73.98,115.84 73.98,122.76 77.31,122.76 77.31,129.68 80.64,129.68 80.64,136.60 83.97,136.60 83.97,143.52 87.30,143.52 87.30,150.44 90.63,150.44 90.63,157.36 93.95,157.36 93.95,164.28 97.28,164.28 97.28,171.20 100.61,171.20 100.61,178.12 103.94,178.12 103.94,185.04 107.27,185.04 107.27,191.96 110.60,191.96 110.60,198.88 113.92,198.88 113.92,205.80 117.25,205.80 117.25,212.72 120.58,212.72 120.58,219.64 123.91,219.64 123.91,226.56 127.24,226.56 127.24,233.48 130.56,233.48 130.56,240.40 133.89,240.40 133.89,247.32 137.22,247.32 137.22,254.24 140.55,254.24 140.55,261.16 143.88,261.16 143.88,268.08 147.21,268.08 147.21,275.00 150.53,275.00 150.53,281.92 153.86,281.92 153.86,288.84 157.19,288.84 157.19,295.76 160.52,295.76 160.52,302.68 163.85,302.68 163.85,309.60 167.18,309.60 167.18,316.52 170.50,316.52 170.50,323.44 173.83,323.44 173.83,330.36 177.16,330.36 177.16,337.28 180.49,337.28 180.49,344.20 183.82,344.20 183.82,351.12 187.15,351.12 187.15,358.04 190.47,358.04 190.47,364.96 193.80,364.96 193.80,371.88 197.13,371.88 197.13,378.80 200.46,378.80 200.46,385.72 203.79,385.72 203.79,392.64 207.11,392.64 207.11,399.56 210.44,399.56 210.44,406.48 213.77,406.48 213.77,413.40 217.10,413.40 217.10,420.32 220.43,420.32 220.43,427.24 223.76,427.24 223.76,434.16 227.08,434.16 227.08,441.08 230.41,441.08 230.41,448.00 233.74,448.00 233.74,448.00 237.07,448.00 237.07,448.00 240.40,448.00 240.40,448.00 243.73,448.00 243.73,448.00 247.05,448.00 247.05,448.00 250.38,448.00 250.38,171.20 253.71,171.20 253.71,178.12 257.04,178.12 257.04,185.04 260.37,185.04 260.37,191.96 263.69,191.96 263.69,198.88 267.02,198.88 267.02,205.80 270.35,205.80 270.35,212.72 273.68,212.72 273.68,219.64 277.01,219.64 277.01,226.56 280.34,226.56 280.34,233.48 283.66,233.48 283.66,240.40 286.99,240.40 286.99,247.32 290.32,247.32 290.32,254.24 293.65,254.24 293.65,261.16 296.98,261.16 296.98,268.08 300.31,268.08 300.31,275.00 303.63,275.00 303.63,281.92 306.96,281.92 306.96,288.84 310.29,288.84 310.29,295.76 313.62,295.76 313.62,302.68 316.95,302.68 316.95,309.60 320.27,309.60 320.27,316.52 323.60,316.52 323.60,323.44 326.93,323.44 326.93,330.36 330.26,330.36 330.26,337.28 333.59,337.28 333.59,344.20 336.92,344.20 336.92,351.12 340.24,351.12 340.24,358.04 343.57,358.04 343.57,364.96 346.90,364.96 346.90,371.88 350.23,371.88 350.23,378.80 353.56,378.80 353.56,385.72 356.89,385.72 356.89,392.64 360.21,392.64 360.21,399.56 363.54,399.56 363.54,406.48 366.87,406.48 366.87,413.40 370.20,413.40 370.20,420.32 373.53,420.32 373.53,427.24 376.85,427.24 376.85,434.16 380.18,434.16 380.18,441.08 383.51,441.08 383.51,448.00 386.84,448.00 386.84,205.80 390.17,205.80 390.17,212.72 393.50,212.72 393.50,219.64 396.82,219.64 396.82,226.56 400.15,226.56 400.15,233.48 403.48,233.48 403.48,240.40 406.81,240.40 406.81,247.32 410.14,247.32 410.14,254.24 413.47,254.24 413.47,261.16 416.79,261.16 416.79,268.08 420.12,268.08 420.12,275.00 423.45,275.00 423.45,281.92 426.78,281.92 426.78,288.84 430.11,288.84 430.11,295.76 433.44,295.76 433.44,302.68 436.76,302.68 436.76,309.60 440.09,309.60 440.09,316.52 443.42,316.52 443.42,323.44 446.75,323.44 446.75,330.36 450.08,330.36 450.08,337.28 453.40,337.28 453.40,344.20 456.73,344.20 456.73,351.12 460.06,351.12 460.06,358.04 463.39,358.04 463.39,364.96 466.72,364.96 466.72,371.88 470.05,371.88 470.05,378.80 473.37,378.80 473.37,385.72 476.70,385.72 476.70,392.64 480.03,392.64 480.03,399.56 483.36,399.56 483.36,406.48 486.69,406.48 486.69,413.40 490.02,413.40 490.02,212.72 493.34,212.72 493.34,219.64 496.67,219.64 496.67,226.56 500.00,226.56 500.00,233.48 503.33,233.48 503.33,240.40 506.66,240.40 506.66,247.32 509.98,247.32 509.98,254.24 513.31,254.24 513.31,261.16 516.64,261.16 516.64,268.08 519.97,268.08 519.97,275.00 523.30,275.00 523.30,281.92 526.63,281.92 526.63,288.84 529.95,288.84 529.95,295.76 533.28,295.76 533.28,302.68 536.61,302.68 536.61,309.60 539.94,309.60 539.94,316.52 543.27,316.52 543.27,323.44 546.60,323.44 546.60,330.36 549.92,330.36 549.92,337.28 553.25,337.28 553.25,344.20 556.58,344.20 556.58,351.12 559.91,351.12 559.91,358.04 563.24,358.04 563.24,364.96 566.56,364.96 566.56,371.88 569.89,371.88 569.89,378.80 573.22,378.80 573.22,385.72 576.55,385.72 576.55,392.64 579.88,392.64 579.88,212.72 583.21,212.72 583.21,219.64 586.53,219.64 586.53,226.56 589.86,226.56 589.86,233.48 593.19,233.48 593.19,240.40 596.52,240.40 596.52,247.32 599.85,247.32 599.85,254.24 603.18,254.24 603.18,261.16 606.50,261.16 606.50,268.08 609.83,268.08 609.83,275.00 613.16,275.00 613.16,281.92 616.49,281.92 616.49,288.84 619.82,288.84 619.82,295.76 623.15,295.76 623.15,302.68 626.47,302.68 626.47,309.60 629.80,309.60 629.80,316.52 633.13,316.52 633.13,323.44 636.46,323.44 636.46,330.36 639.79,330.36 639.79,337.28 643.11,337.28 643.11,344.20 646.44,344.20 646.44,351.12 649.77,351.12 649.77,358.04 653.10,358.04 653.10,364.96 656.43,364.96 656.43,371.88 659.76,371.88 659.76,378.80 663.08,378.80 663.08,212.72 666.41,212.72 666.41,219.64 669.74,219.64 669.74,226.56 673.07,226.56 673.07,233.48 676.40,233.48 676.40,240.40 679.73,240.40 679.73,247.32 683.05,247.32 683.05,254.24 686.38,254.24 686.38,261.16 689.71,261.16 689.71,268.08 693.04,268.08 693.04,275.00 696.37,275.00 696.37,281.92 699.69,281.92 699.69,288.84 703.02,288.84 703.02,295.76 706.35,295.76 706.35,302.68 709.68,302.68 709.68,309.60 713.01,309.60 713.01,316.52 716.34,316.52 716.34,323.44 719.66,323.44 719.66,330.36 722.99,330.36 722.99,337.28 726.32,337.28 726.32,344.20 729.65,344.20 729.65,351.12 732.98,351.12 732.98,358.04 736.31,358.04 736.31,364.96 739.63,364.96 739.63,371.88 742.96,371.88 742.96,212.72 746.29,212.72 746.29,219.64 749.62,219.64 749.62,226.56 752.95,226.56 752.95,233.48 756.27,233.48 756.27,240.40 759.60,240.40 759.60,247.32 762.93,247.32 762.93,254.24 766.26,254.24 766.26,261.16 769.59,261.16 769.59,268.08 772.92,268.08 772.92,275.00 776.24,275.00 776.24,281.92 779.57,281.92 779.57,288.84 782.90,288.84 782.90,295.76 786.23,295.76 786.23,302.68 789.56,302.68 789.56,309.60 792.89,309.60 792.89,316.52 796.21,316.52 796.21,323.44 799.54,323.44 799.54,330.36 802.87,330.36 802.87,337.28 806.20,337.28 806.20,344.20 809.53,344.20 809.53,351.12 812.85,351.12 812.85,358.04 816.18,358.04 816.18,364.96 819.51,364.96 819.51,371.88 822.84,371.88 822.84,212.72 826.17,212.72 826.17,219.64 829.50,219.64 829.50,226.56 832.82,226.56 832.82,233.48 836.15,233.48 836.15,240.40 839.48,240.40 839.48,247.32 842.81,247.32 842.81,254.24 846.14,254.24 846.14,261.16 849.47,261.16 849.47,268.08 852.79,268.08 852.79,275.00 856.12,275.00 856.12,281.92 859.45,281.92 859.45,288.84 862.78,288.84 862.78,295.76 866.11,295.76 866.11,302.68 869.44,302.68 869.44,309.60 872.76,309.60 872.76,316.52 876.09,316.52 876.09,323.44 879.42,323.44 879.42,330.36 882.75,330.36 882.75,337.28 886.08,337.28 886.08,344.20 889.40,344.20 889.40,351.12 892.73,351.12 892.73,358.04 896.06,358.04 896.06,364.96 899.39,364.96 899.39,371.88 902.72,371.88 902.72,378.80 906.05,378.80 906.05,385.72 909.37,385.72 909.37,392.64 912.70,392.64 912.70,399.56 916.03,399.56 916.03,406.48 919.36,406.48 919.36,413.40 922.69,413.40 922.69,420.32 926.02,420.32 926.02,427.24 929.34,427.24 929.34,434.16 932.67,434.16 932.67,441.08 936.00,441.08" /><line x1="490.02" y1="212.72" x2="493.34" y2="212.72" stroke="#f97316" stroke-width="3.5" stroke-linecap="round" /><line x1="493.34" y1="219.64" x2="496.67" y2="219.64" stroke="#f97316" stroke-width="3.5" stroke-linecap="round" /><line x1="493.34" y1="212.72" x2="493.34" y2="219.64" stroke="#f97316" stroke-width="3.5" stroke-linecap="round" /><line x1="496.67" y1="226.56" x2="500.00" y2="226.56" stroke="#f97316" stroke-width="3.5" stroke-linecap="round" /><line x1="496.67" y1="219.64" x2="496.67" y2="226.56" stroke="#f97316" stroke-width="3.5" stroke-linecap="round" /><line x1="500.00" y1="233.48" x2="503.33" y2="233.48" stroke="#f97316" stroke-width="3.5" stroke-linecap="round" /><line x1="500.00" y1="226.56" x2="500.00" y2="233.48" stroke="#f97316" stroke-width="3.5" stroke-linecap="round" /><line x1="579.88" y1="212.72" x2="583.21" y2="212.72" stroke="#f97316" stroke-width="3.5" stroke-linecap="round" /><line x1="583.21" y1="219.64" x2="586.53" y2="219.64" stroke="#f97316" stroke-width="3.5" stroke-linecap="round" /><line x1="583.21" y1="212.72" x2="583.21" y2="219.64" stroke="#f97316" stroke-width="3.5" stroke-linecap="round" /><line x1="586.53" y1="226.56" x2="589.86" y2="226.56" stroke="#f97316" stroke-width="3.5" stroke-linecap="round" /><line x1="586.53" y1="219.64" x2="586.53" y2="226.56" stroke="#f97316" stroke-width="3.5" stroke-linecap="round" /><line x1="589.86" y1="233.48" x2="593.19" y2="233.48" stroke="#f97316" stroke-width="3.5" stroke-linecap="round" /><line x1="589.86" y1="226.56" x2="589.86" y2="233.48" stroke="#f97316" stroke-width="3.5" stroke-linecap="round" /><line x1="593.19" y1="240.40" x2="596.52" y2="240.40" stroke="#f97316" stroke-width="3.5" stroke-linecap="round" /><line x1="593.19" y1="233.48" x2="593.19" y2="240.40" stroke="#f97316" stroke-width="3.5" stroke-linecap="round" /><line x1="596.52" y1="247.32" x2="599.85" y2="247.32" stroke="#f97316" stroke-width="3.5" stroke-linecap="round" /><line x1="596.52" y1="240.40" x2="596.52" y2="247.32" stroke="#f97316" stroke-width="3.5" stroke-linecap="round" /><line x1="599.85" y1="254.24" x2="603.18" y2="254.24" stroke="#f97316" stroke-width="3.5" stroke-linecap="round" /><line x1="599.85" y1="247.32" x2="599.85" y2="254.24" stroke="#f97316" stroke-width="3.5" stroke-linecap="round" /><line x1="663.08" y1="212.72" x2="666.41" y2="212.72" stroke="#f97316" stroke-width="3.5" stroke-linecap="round" /><line x1="666.41" y1="219.64" x2="669.74" y2="219.64" stroke="#f97316" stroke-width="3.5" stroke-linecap="round" /><line x1="666.41" y1="212.72" x2="666.41" y2="219.64" stroke="#f97316" stroke-width="3.5" stroke-linecap="round" /><line x1="669.74" y1="226.56" x2="673.07" y2="226.56" stroke="#f97316" stroke-width="3.5" stroke-linecap="round" /><line x1="669.74" y1="219.64" x2="669.74" y2="226.56" stroke="#f97316" stroke-width="3.5" stroke-linecap="round" /><line x1="673.07" y1="233.48" x2="676.40" y2="233.48" stroke="#f97316" stroke-width="3.5" stroke-linecap="round" /><line x1="673.07" y1="226.56" x2="673.07" y2="233.48" stroke="#f97316" stroke-width="3.5" stroke-linecap="round" /><line x1="676.40" y1="240.40" x2="679.73" y2="240.40" stroke="#f97316" stroke-width="3.5" stroke-linecap="round" /><line x1="676.40" y1="233.48" x2="676.40" y2="240.40" stroke="#f97316" stroke-width="3.5" stroke-linecap="round" /><line x1="679.73" y1="247.32" x2="683.05" y2="247.32" stroke="#f97316" stroke-width="3.5" stroke-linecap="round" /><line x1="679.73" y1="240.40" x2="679.73" y2="247.32" stroke="#f97316" stroke-width="3.5" stroke-linecap="round" /><line x1="683.05" y1="254.24" x2="686.38" y2="254.24" stroke="#f97316" stroke-width="3.5" stroke-linecap="round" /><line x1="683.05" y1="247.32" x2="683.05" y2="254.24" stroke="#f97316" stroke-width="3.5" stroke-linecap="round" /><line x1="686.38" y1="261.16" x2="689.71" y2="261.16" stroke="#f97316" stroke-width="3.5" stroke-linecap="round" /><line x1="686.38" y1="254.24" x2="686.38" y2="261.16" stroke="#f97316" stroke-width="3.5" stroke-linecap="round" /><line x1="689.71" y1="268.08" x2="693.04" y2="268.08" stroke="#f97316" stroke-width="3.5" stroke-linecap="round" /><line x1="689.71" y1="261.16" x2="689.71" y2="268.08" stroke="#f97316" stroke-width="3.5" stroke-linecap="round" /><line x1="742.96" y1="212.72" x2="746.29" y2="212.72" stroke="#f97316" stroke-width="3.5" stroke-linecap="round" /><line x1="746.29" y1="219.64" x2="749.62" y2="219.64" stroke="#f97316" stroke-width="3.5" stroke-linecap="round" /><line x1="746.29" y1="212.72" x2="746.29" y2="219.64" stroke="#f97316" stroke-width="3.5" stroke-linecap="round" /><line x1="749.62" y1="226.56" x2="752.95" y2="226.56" stroke="#f97316" stroke-width="3.5" stroke-linecap="round" /><line x1="749.62" y1="219.64" x2="749.62" y2="226.56" stroke="#f97316" stroke-width="3.5" stroke-linecap="round" /><line x1="752.95" y1="233.48" x2="756.27" y2="233.48" stroke="#f97316" stroke-width="3.5" stroke-linecap="round" /><line x1="752.95" y1="226.56" x2="752.95" y2="233.48" stroke="#f97316" stroke-width="3.5" stroke-linecap="round" /><line x1="756.27" y1="240.40" x2="759.60" y2="240.40" stroke="#f97316" stroke-width="3.5" stroke-linecap="round" /><line x1="756.27" y1="233.48" x2="756.27" y2="240.40" stroke="#f97316" stroke-width="3.5" stroke-linecap="round" /><line x1="759.60" y1="247.32" x2="762.93" y2="247.32" stroke="#f97316" stroke-width="3.5" stroke-linecap="round" /><line x1="759.60" y1="240.40" x2="759.60" y2="247.32" stroke="#f97316" stroke-width="3.5" stroke-linecap="round" /><line x1="762.93" y1="254.24" x2="766.26" y2="254.24" stroke="#f97316" stroke-width="3.5" stroke-linecap="round" /><line x1="762.93" y1="247.32" x2="762.93" y2="254.24" stroke="#f97316" stroke-width="3.5" stroke-linecap="round" /><line x1="766.26" y1="261.16" x2="769.59" y2="261.16" stroke="#f97316" stroke-width="3.5" stroke-linecap="round" /><line x1="766.26" y1="254.24" x2="766.26" y2="261.16" stroke="#f97316" stroke-width="3.5" stroke-linecap="round" /><line x1="769.59" y1="268.08" x2="772.92" y2="268.08" stroke="#f97316" stroke-width="3.5" stroke-linecap="round" /><line x1="769.59" y1="261.16" x2="769.59" y2="268.08" stroke="#f97316" stroke-width="3.5" stroke-linecap="round" /><line x1="772.92" y1="275.00" x2="776.24" y2="275.00" stroke="#f97316" stroke-width="3.5" stroke-linecap="round" /><line x1="772.92" y1="268.08" x2="772.92" y2="275.00" stroke="#f97316" stroke-width="3.5" stroke-linecap="round" /><line x1="822.84" y1="212.72" x2="826.17" y2="212.72" stroke="#f97316" stroke-width="3.5" stroke-linecap="round" /><line x1="826.17" y1="219.64" x2="829.50" y2="219.64" stroke="#f97316" stroke-width="3.5" stroke-linecap="round" /><line x1="826.17" y1="212.72" x2="826.17" y2="219.64" stroke="#f97316" stroke-width="3.5" stroke-linecap="round" /><line x1="829.50" y1="226.56" x2="832.82" y2="226.56" stroke="#f97316" stroke-width="3.5" stroke-linecap="round" /><line x1="829.50" y1="219.64" x2="829.50" y2="226.56" stroke="#f97316" stroke-width="3.5" stroke-linecap="round" /><line x1="832.82" y1="233.48" x2="836.15" y2="233.48" stroke="#f97316" stroke-width="3.5" stroke-linecap="round" /><line x1="832.82" y1="226.56" x2="832.82" y2="233.48" stroke="#f97316" stroke-width="3.5" stroke-linecap="round" /><line x1="836.15" y1="240.40" x2="839.48" y2="240.40" stroke="#f97316" stroke-width="3.5" stroke-linecap="round" /><line x1="836.15" y1="233.48" x2="836.15" y2="240.40" stroke="#f97316" stroke-width="3.5" stroke-linecap="round" /><line x1="839.48" y1="247.32" x2="842.81" y2="247.32" stroke="#f97316" stroke-width="3.5" stroke-linecap="round" /><line x1="839.48" y1="240.40" x2="839.48" y2="247.32" stroke="#f97316" stroke-width="3.5" stroke-linecap="round" /><line x1="842.81" y1="254.24" x2="846.14" y2="254.24" stroke="#f97316" stroke-width="3.5" stroke-linecap="round" /><line x1="842.81" y1="247.32" x2="842.81" y2="254.24" stroke="#f97316" stroke-width="3.5" stroke-linecap="round" /><line x1="846.14" y1="261.16" x2="849.47" y2="261.16" stroke="#f97316" stroke-width="3.5" stroke-linecap="round" /><line x1="846.14" y1="254.24" x2="846.14" y2="261.16" stroke="#f97316" stroke-width="3.5" stroke-linecap="round" /><line x1="849.47" y1="268.08" x2="852.79" y2="268.08" stroke="#f97316" stroke-width="3.5" stroke-linecap="round" /><line x1="849.47" y1="261.16" x2="849.47" y2="268.08" stroke="#f97316" stroke-width="3.5" stroke-linecap="round" /><line x1="852.79" y1="275.00" x2="856.12" y2="275.00" stroke="#f97316" stroke-width="3.5" stroke-linecap="round" /><line x1="852.79" y1="268.08" x2="852.79" y2="275.00" stroke="#f97316" stroke-width="3.5" stroke-linecap="round" /><polyline fill="none" stroke="#6b7280" stroke-width="2" stroke-dasharray="6 4" points="64.00,378.80 64.00,378.80 67.33,378.80 67.33,378.80 70.66,378.80 70.66,378.80 73.98,378.80 73.98,378.80 77.31,378.80 77.31,378.80 80.64,378.80 80.64,378.80 83.97,378.80 83.97,378.80 87.30,378.80 87.30,378.80 90.63,378.80 90.63,378.80 93.95,378.80 93.95,378.80 97.28,378.80 97.28,378.80 100.61,378.80 100.61,378.80 103.94,378.80 103.94,378.80 107.27,378.80 107.27,378.80 110.60,378.80 110.60,378.80 113.92,378.80 113.92,378.80 117.25,378.80 117.25,378.80 120.58,378.80 120.58,378.80 123.91,378.80 123.91,378.80 127.24,378.80 127.24,378.80 130.56,378.80 130.56,378.80 133.89,378.80 133.89,378.80 137.22,378.80 137.22,378.80 140.55,378.80 140.55,378.80 143.88,378.80 143.88,378.80 147.21,378.80 147.21,378.80 150.53,378.80 150.53,378.80 153.86,378.80 153.86,378.80 157.19,378.80 157.19,378.80 160.52,378.80 160.52,378.80 163.85,378.80 163.85,378.80 167.18,378.80 167.18,378.80 170.50,378.80 170.50,378.80 173.83,378.80 173.83,378.80 177.16,378.80 177.16,378.80 180.49,378.80 180.49,378.80 183.82,378.80 183.82,378.80 187.15,378.80 187.15,378.80 190.47,378.80 190.47,378.80 193.80,378.80 193.80,378.80 197.13,378.80 197.13,378.80 200.46,378.80 200.46,378.80 203.79,378.80 203.79,378.80 207.11,378.80 207.11,378.80 210.44,378.80 210.44,378.80 213.77,378.80 213.77,378.80 217.10,378.80 217.10,378.80 220.43,378.80 220.43,378.80 223.76,378.80 223.76,378.80 227.08,378.80 227.08,378.80 230.41,378.80 230.41,378.80 233.74,378.80 233.74,378.80 237.07,378.80 237.07,378.80 240.40,378.80 240.40,378.80 243.73,378.80 243.73,378.80 247.05,378.80 247.05,378.80 250.38,378.80 250.38,344.20 253.71,344.20 253.71,344.20 257.04,344.20 257.04,344.20 260.37,344.20 260.37,344.20 263.69,344.20 263.69,344.20 267.02,344.20 267.02,344.20 270.35,344.20 270.35,344.20 273.68,344.20 273.68,344.20 277.01,344.20 277.01,344.20 280.34,344.20 280.34,344.20 283.66,344.20 283.66,344.20 286.99,344.20 286.99,344.20 290.32,344.20 290.32,344.20 293.65,344.20 293.65,344.20 296.98,344.20 296.98,344.20 300.31,344.20 300.31,344.20 303.63,344.20 303.63,344.20 306.96,344.20 306.96,344.20 310.29,344.20 310.29,344.20 313.62,344.20 313.62,344.20 316.95,344.20 316.95,344.20 320.27,344.20 320.27,344.20 323.60,344.20 323.60,344.20 326.93,344.20 326.93,344.20 330.26,344.20 330.26,344.20 333.59,344.20 333.59,344.20 336.92,344.20 336.92,344.20 340.24,344.20 340.24,344.20 343.57,344.20 343.57,344.20 346.90,344.20 346.90,344.20 350.23,344.20 350.23,344.20 353.56,344.20 353.56,344.20 356.89,344.20 356.89,344.20 360.21,344.20 360.21,344.20 363.54,344.20 363.54,344.20 366.87,344.20 366.87,344.20 370.20,344.20 370.20,344.20 373.53,344.20 373.53,344.20 376.85,344.20 376.85,344.20 380.18,344.20 380.18,344.20 383.51,344.20 383.51,344.20 386.84,344.20 386.84,309.60 390.17,309.60 390.17,309.60 393.50,309.60 393.50,309.60 396.82,309.60 396.82,309.60 400.15,309.60 400.15,309.60 403.48,309.60 403.48,309.60 406.81,309.60 406.81,309.60 410.14,309.60 410.14,309.60 413.47,309.60 413.47,309.60 416.79,309.60 416.79,309.60 420.12,309.60 420.12,309.60 423.45,309.60 423.45,309.60 426.78,309.60 426.78,309.60 430.11,309.60 430.11,309.60 433.44,309.60 433.44,309.60 436.76,309.60 436.76,309.60 440.09,309.60 440.09,309.60 443.42,309.60 443.42,309.60 446.75,309.60 446.75,309.60 450.08,309.60 450.08,309.60 453.40,309.60 453.40,309.60 456.73,309.60 456.73,309.60 460.06,309.60 460.06,309.60 463.39,309.60 463.39,309.60 466.72,309.60 466.72,309.60 470.05,309.60 470.05,309.60 473.37,309.60 473.37,309.60 476.70,309.60 476.70,309.60 480.03,309.60 480.03,309.60 483.36,309.60 483.36,309.60 486.69,309.60 486.69,309.60 490.02,309.60 490.02,288.84 493.34,288.84 493.34,288.84 496.67,288.84 496.67,288.84 500.00,288.84 500.00,288.84 503.33,288.84 503.33,288.84 506.66,288.84 506.66,288.84 509.98,288.84 509.98,288.84 513.31,288.84 513.31,288.84 516.64,288.84 516.64,288.84 519.97,288.84 519.97,288.84 523.30,288.84 523.30,288.84 526.63,288.84 526.63,288.84 529.95,288.84 529.95,288.84 533.28,288.84 533.28,288.84 536.61,288.84 536.61,288.84 539.94,288.84 539.94,288.84 543.27,288.84 543.27,288.84 546.60,288.84 546.60,288.84 549.92,288.84 549.92,288.84 553.25,288.84 553.25,288.84 556.58,288.84 556.58,288.84 559.91,288.84 559.91,288.84 563.24,288.84 563.24,288.84 566.56,288.84 566.56,288.84 569.89,288.84 569.89,288.84 573.22,288.84 573.22,288.84 576.55,288.84 576.55,288.84 579.88,288.84 579.88,275.00 583.21,275.00 583.21,275.00 586.53,275.00 586.53,275.00 589.86,275.00 589.86,275.00 593.19,275.00 593.19,275.00 596.52,275.00 596.52,275.00 599.85,275.00 599.85,275.00 603.18,275.00 603.18,275.00 606.50,275.00 606.50,275.00 609.83,275.00 609.83,275.00 613.16,275.00 613.16,275.00 616.49,275.00 616.49,275.00 619.82,275.00 619.82,275.00 623.15,275.00 623.15,275.00 626.47,275.00 626.47,275.00 629.80,275.00 629.80,275.00 633.13,275.00 633.13,275.00 636.46,275.00 636.46,275.00 639.79,275.00 639.79,275.00 643.11,275.00 643.11,275.00 646.44,275.00 646.44,275.00 649.77,275.00 649.77,275.00 653.10,275.00 653.10,275.00 656.43,275.00 656.43,275.00 659.76,275.00 659.76,275.00 663.08,275.00 663.08,268.08 666.41,268.08 666.41,268.08 669.74,268.08 669.74,268.08 673.07,268.08 673.07,268.08 676.40,268.08 676.40,268.08 679.73,268.08 679.73,268.08 683.05,268.08 683.05,268.08 686.38,268.08 686.38,268.08 689.71,268.08 689.71,268.08 693.04,268.08 693.04,268.08 696.37,268.08 696.37,268.08 699.69,268.08 699.69,268.08 703.02,268.08 703.02,268.08 706.35,268.08 706.35,268.08 709.68,268.08 709.68,268.08 713.01,268.08 713.01,268.08 716.34,268.08 716.34,268.08 719.66,268.08 719.66,268.08 722.99,268.08 722.99,268.08 726.32,268.08 726.32,268.08 729.65,268.08 729.65,268.08 732.98,268.08 732.98,268.08 736.31,268.08 736.31,268.08 739.63,268.08 739.63,268.08 742.96,268.08 742.96,268.08 746.29,268.08 746.29,268.08 749.62,268.08 749.62,268.08 752.95,268.08 752.95,268.08 756.27,268.08 756.27,268.08 759.60,268.08 759.60,268.08 762.93,268.08 762.93,268.08 766.26,268.08 766.26,268.08 769.59,268.08 769.59,268.08 772.92,268.08 772.92,268.08 776.24,268.08 776.24,268.08 779.57,268.08 779.57,268.08 782.90,268.08 782.90,268.08 786.23,268.08 786.23,268.08 789.56,268.08 789.56,268.08 792.89,268.08 792.89,268.08 796.21,268.08 796.21,268.08 799.54,268.08 799.54,268.08 802.87,268.08 802.87,268.08 806.20,268.08 806.20,268.08 809.53,268.08 809.53,268.08 812.85,268.08 812.85,268.08 816.18,268.08 816.18,268.08 819.51,268.08 819.51,268.08 822.84,268.08 822.84,268.08 826.17,268.08 826.17,268.08 829.50,268.08 829.50,268.08 832.82,268.08 832.82,268.08 836.15,268.08 836.15,268.08 839.48,268.08 839.48,268.08 842.81,268.08 842.81,268.08 846.14,268.08 846.14,268.08 849.47,268.08 849.47,268.08 852.79,268.08 852.79,268.08 856.12,268.08 856.12,268.08 859.45,268.08 859.45,268.08 862.78,268.08 862.78,268.08 866.11,268.08 866.11,268.08 869.44,268.08 869.44,268.08 872.76,268.08 872.76,268.08 876.09,268.08 876.09,268.08 879.42,268.08 879.42,268.08 882.75,268.08 882.75,268.08 886.08,268.08 886.08,268.08 889.40,268.08 889.40,268.08 892.73,268.08 892.73,268.08 896.06,268.08 896.06,268.08 899.39,268.08 899.39,268.08 902.72,268.08 902.72,268.08 906.05,268.08 906.05,268.08 909.37,268.08 909.37,268.08 912.70,268.08 912.70,268.08 916.03,268.08 916.03,268.08 919.36,268.08 919.36,268.08 922.69,268.08 922.69,268.08 926.02,268.08 926.02,268.08 929.34,268.08 929.34,268.08 932.67,268.08 932.67,268.08 936.00,268.08" /><circle cx="197.13" cy="378.80" r="4.5" fill="#10b981" stroke="#065f46" stroke-width="1.2" /><line x1="225.41" y1="443.00" x2="235.41" y2="453.00" stroke="#dc2626" stroke-width="2" /><line x1="225.41" y1="453.00" x2="235.41" y2="443.00" stroke="#dc2626" stroke-width="2" /><line x1="228.74" y1="443.00" x2="238.74" y2="453.00" stroke="#dc2626" stroke-width="2" /><line x1="228.74" y1="453.00" x2="238.74" y2="443.00" stroke="#dc2626" stroke-width="2" /><line x1="232.07" y1="443.00" x2="242.07" y2="453.00" stroke="#dc2626" stroke-width="2" /><line x1="232.07" y1="453.00" x2="242.07" y2="443.00" stroke="#dc2626" stroke-width="2" /><line x1="235.40" y1="443.00" x2="245.40" y2="453.00" stroke="#dc2626" stroke-width="2" /><line x1="235.40" y1="453.00" x2="245.40" y2="443.00" stroke="#dc2626" stroke-width="2" /><line x1="238.73" y1="443.00" x2="248.73" y2="453.00" stroke="#dc2626" stroke-width="2" /><line x1="238.73" y1="453.00" x2="248.73" y2="443.00" stroke="#dc2626" stroke-width="2" /><line x1="242.05" y1="443.00" x2="252.05" y2="453.00" stroke="#dc2626" stroke-width="2" /><line x1="242.05" y1="453.00" x2="252.05" y2="443.00" stroke="#dc2626" stroke-width="2" /><polygon points="250.38,166.20 255.38,171.20 250.38,176.20 245.38,171.20" fill="#f59e0b" stroke="#92400e" stroke-width="1.2" /><circle cx="333.59" cy="344.20" r="4.5" fill="#10b981" stroke="#065f46" stroke-width="1.2" /><line x1="378.51" y1="443.00" x2="388.51" y2="453.00" stroke="#dc2626" stroke-width="2" /><line x1="378.51" y1="453.00" x2="388.51" y2="443.00" stroke="#dc2626" stroke-width="2" /><polygon points="386.84,200.80 391.84,205.80 386.84,210.80 381.84,205.80" fill="#f59e0b" stroke="#92400e" stroke-width="1.2" /><circle cx="436.76" cy="309.60" r="4.5" fill="#10b981" stroke="#065f46" stroke-width="1.2" /><polygon points="490.02,207.72 495.02,212.72 490.02,217.72 485.02,212.72" fill="#f59e0b" stroke="#92400e" stroke-width="1.2" /><circle cx="526.63" cy="288.84" r="4.5" fill="#10b981" stroke="#065f46" stroke-width="1.2" /><polygon points="579.88,207.72 584.88,212.72 579.88,217.72 574.88,212.72" fill="#f59e0b" stroke="#92400e" stroke-width="1.2" /><circle cx="609.83" cy="275.00" r="4.5" fill="#10b981" stroke="#065f46" stroke-width="1.2" /><polygon points="663.08,207.72 668.08,212.72 663.08,217.72 658.08,212.72" fill="#f59e0b" stroke="#92400e" stroke-width="1.2" /><circle cx="689.71" cy="268.08" r="4.5" fill="#10b981" stroke="#065f46" stroke-width="1.2" /><polygon points="742.96,207.72 747.96,212.72 742.96,217.72 737.96,212.72" fill="#f59e0b" stroke="#92400e" stroke-width="1.2" /><circle cx="769.59" cy="268.08" r="4.5" fill="#10b981" stroke="#065f46" stroke-width="1.2" /><polygon points="822.84,207.72 827.84,212.72 822.84,217.72 817.84,212.72" fill="#f59e0b" stroke="#92400e" stroke-width="1.2" /><text x="64" y="510.00" font-size="11" font-weight="600" fill="#111827">chunk lane</text><rect x="146" y="500.00" width="16" height="12" fill="#2563eb" rx="2" ry="2" /><text x="172" y="510.00" font-size="11" fill="#374151">color = emitted action origin</text><rect x="382" y="500.00" width="8" height="12" fill="#10b981" rx="1.5" ry="1.5" /><rect x="390" y="500.00" width="8" height="12" fill="#f59e0b" rx="1.5" ry="1.5" /><text x="410" y="510.00" font-size="11" fill="#374151">split = overlap-blended handoff</text><rect x="64.00" y="522.00" width="166.41" height="16" fill="#2563eb" stroke="#ffffff" stroke-width="0.4" /><rect x="230.41" y="522.00" width="19.97" height="16" fill="#ffffff" stroke="#d1d5db" stroke-width="0.8" /><rect x="250.38" y="522.00" width="133.13" height="16" fill="#10b981" stroke="#ffffff" stroke-width="0.4" /><rect x="383.51" y="522.00" width="3.33" height="16" fill="#ffffff" stroke="#d1d5db" stroke-width="0.8" /><rect x="386.84" y="522.00" width="103.18" height="16" fill="#f59e0b" stroke="#ffffff" stroke-width="0.4" /><rect x="490.02" y="522.00" width="6.66" height="16" fill="#f59e0b" stroke="#ffffff" stroke-width="0.2" /><rect x="496.67" y="522.00" width="6.66" height="16" fill="#ef4444" stroke="#ffffff" stroke-width="0.2" /><rect x="490.02" y="522.00" width="13.31" height="16" fill="none" stroke="#111827" stroke-width="0.35" /><rect x="503.33" y="522.00" width="76.55" height="16" fill="#ef4444" stroke="#ffffff" stroke-width="0.4" /><rect x="579.88" y="522.00" width="11.65" height="16" fill="#ef4444" stroke="#ffffff" stroke-width="0.2" /><rect x="591.53" y="522.00" width="11.65" height="16" fill="#8b5cf6" stroke="#ffffff" stroke-width="0.2" /><rect x="579.88" y="522.00" width="23.30" height="16" fill="none" stroke="#111827" stroke-width="0.35" /><rect x="603.18" y="522.00" width="59.91" height="16" fill="#8b5cf6" stroke="#ffffff" stroke-width="0.4" /><rect x="663.08" y="522.00" width="14.98" height="16" fill="#8b5cf6" stroke="#ffffff" stroke-width="0.2" /><rect x="678.06" y="522.00" width="14.98" height="16" fill="#14b8a6" stroke="#ffffff" stroke-width="0.2" /><rect x="663.08" y="522.00" width="29.95" height="16" fill="none" stroke="#111827" stroke-width="0.35" /><rect x="693.04" y="522.00" width="49.92" height="16" fill="#14b8a6" stroke="#ffffff" stroke-width="0.4" /><rect x="742.96" y="522.00" width="16.64" height="16" fill="#14b8a6" stroke="#ffffff" stroke-width="0.2" /><rect x="759.60" y="522.00" width="16.64" height="16" fill="#f97316" stroke="#ffffff" stroke-width="0.2" /><rect x="742.96" y="522.00" width="33.28" height="16" fill="none" stroke="#111827" stroke-width="0.35" /><rect x="776.24" y="522.00" width="46.60" height="16" fill="#f97316" stroke="#ffffff" stroke-width="0.4" /><rect x="822.84" y="522.00" width="16.64" height="16" fill="#f97316" stroke="#ffffff" stroke-width="0.2" /><rect x="839.48" y="522.00" width="16.64" height="16" fill="#84cc16" stroke="#ffffff" stroke-width="0.2" /><rect x="822.84" y="522.00" width="33.28" height="16" fill="none" stroke="#111827" stroke-width="0.35" /><rect x="856.12" y="522.00" width="79.88" height="16" fill="#84cc16" stroke="#ffffff" stroke-width="0.4" /><text x="147.21" y="533.00" font-size="9" text-anchor="middle" fill="#ffffff">r0</text><text x="316.95" y="533.00" font-size="9" text-anchor="middle" fill="#ffffff">r1</text><text x="438.43" y="533.00" font-size="9" text-anchor="middle" fill="#ffffff">r2</text><text x="541.60" y="533.00" font-size="9" text-anchor="middle" fill="#ffffff">r3</text><text x="633.13" y="533.00" font-size="9" text-anchor="middle" fill="#ffffff">r4</text><text x="678.06" y="533.00" font-size="9" text-anchor="middle" fill="#ffffff">r4+r5</text><text x="718.00" y="533.00" font-size="9" text-anchor="middle" fill="#ffffff">r5</text><text x="759.60" y="533.00" font-size="9" text-anchor="middle" fill="#ffffff">r5+r6</text><text x="799.54" y="533.00" font-size="9" text-anchor="middle" fill="#ffffff">r6</text><text x="839.48" y="533.00" font-size="9" text-anchor="middle" fill="#ffffff">r6+r7</text><text x="896.06" y="533.00" font-size="9" text-anchor="middle" fill="#ffffff">r7</text><text x="500.00" y="488" font-size="12" text-anchor="middle" fill="#111827">step</text><text x="18" y="90" font-size="12" fill="#111827">buffer</text></svg>